HIERARCHY
ROOT Pelvis
{
	OFFSET 0.000000 0.941512 0.000000
	CHANNELS 6 Xposition Yposition Zposition Zrotation Yrotation Xrotation 
	JOINT Pelvis_L_Hip
	{
		OFFSET 0.000000 0.000000 0.000000
		CHANNELS 3 Zrotation Yrotation Xrotation
		JOINT L_Hip
		{
			OFFSET 0.062321 -0.080322 -0.016990
			CHANNELS 3 Zrotation Yrotation Xrotation
			JOINT L_Knee
			{
				OFFSET 0.093051 -0.381305 -0.029784
				CHANNELS 3 Zrotation Yrotation Xrotation
				JOINT L_Ankle
				{
					OFFSET -0.010371 -0.431000 -0.033614
					CHANNELS 3 Zrotation Yrotation Xrotation
					End Site #name: L_Foot
					{
						OFFSET 0.069299 -0.038670 0.119418
					}
				}
			}
		}
	}
	JOINT Pelvis_R_Hip
	{
		OFFSET 0.000000 0.000000 0.000000
		CHANNELS 3 Zrotation Yrotation Xrotation
		JOINT R_Hip
		{
			OFFSET -0.055334 -0.094904 -0.002373
			CHANNELS 3 Zrotation Yrotation Xrotation
			JOINT R_Knee
			{
				OFFSET -0.064207 -0.384370 -0.019592
				CHANNELS 3 Zrotation Yrotation Xrotation
				JOINT R_Ankle
				{
					OFFSET 0.025418 -0.419734 -0.065953
					CHANNELS 3 Zrotation Yrotation Xrotation
					End Site #name: R_Foot
					{
						OFFSET -0.057233 -0.039888 0.132134
					}
				}
			}
		}
	}
	JOINT Pelvis_Spine1
	{
		OFFSET 0.000000 0.000000 0.000000
		CHANNELS 3 Zrotation Yrotation Xrotation
		JOINT Spine1
		{
			OFFSET -0.005562 0.124093 -0.043360
			CHANNELS 3 Zrotation Yrotation Xrotation
			JOINT Spine2
			{
				OFFSET 0.012244 0.139499 0.029894
				CHANNELS 3 Zrotation Yrotation Xrotation
				JOINT Spine3
				{
					OFFSET -0.002556 0.056561 0.009225
					CHANNELS 3 Zrotation Yrotation Xrotation
					JOINT Spine3_Neck
					{
						OFFSET 0.000000 0.000000 0.000000
						CHANNELS 3 Zrotation Yrotation Xrotation
						JOINT Neck
						{
							OFFSET -0.005205 0.217920 -0.024551
							CHANNELS 3 Zrotation Yrotation Xrotation
							End Site #name: Head
							{
								OFFSET 0.002365 0.091850 0.046637
							}
						}
					}
					JOINT Spine3_L_Collar
					{
						OFFSET 0.000000 0.000000 0.000000
						CHANNELS 3 Zrotation Yrotation Xrotation
						JOINT L_Collar
						{
							OFFSET 0.072225 0.116603 -0.009480
							CHANNELS 3 Zrotation Yrotation Xrotation
							JOINT L_Shoulder
							{
								OFFSET 0.115937 -0.058643 -0.021018
								CHANNELS 3 Zrotation Yrotation Xrotation
								JOINT L_Elbow
								{
									OFFSET 0.021994 -0.254722 -0.024492
									CHANNELS 3 Zrotation Yrotation Xrotation
									End Site #name: L_Wrist
									{
										OFFSET 0.048810 -0.240214 0.103329
									}
								}
							}
						}
					}
					JOINT Spine3_R_Collar
					{
						OFFSET 0.000000 0.000000 0.000000
						CHANNELS 3 Zrotation Yrotation Xrotation
						JOINT R_Collar
						{
							OFFSET -0.073372 0.120704 -0.024611
							CHANNELS 3 Zrotation Yrotation Xrotation
							JOINT R_Shoulder
							{
								OFFSET -0.108089 -0.054969 -0.020504
								CHANNELS 3 Zrotation Yrotation Xrotation
								JOINT R_Elbow
								{
									OFFSET -0.033684 -0.260739 0.009889
									CHANNELS 3 Zrotation Yrotation Xrotation
									End Site #name: R_Wrist
									{
										OFFSET -0.067980 -0.232763 0.118463
									}
								}
							}
						}
					}
				}
			}
		}
	}
}
MOTION
Frames: 12
Frame Time: 0.041667
0.206921 0.875155 0.917642 -6.897468 24.138803 -1.842688 0.000000 0.000000 0.000000 3.507071 2.720134 24.758100 7.219758 -1.550434 -53.864918 156.362821 20.682259 148.303204 0.000000 0.000000 0.000000 43.406747 -3.835912 -4.185661 -72.735543 -23.134633 -28.908950 143.372466 46.485658 124.600565 0.000000 0.000000 0.000000 -12.315852 -5.371669 -56.048014 -10.300341 1.766682 0.923154 21.269304 11.631983 35.902557 0.000000 0.000000 0.000000 -6.971206 -8.878533 -69.884639 0.000000 0.000000 0.000000 -111.397103 54.908248 -28.766620 40.380330 10.684085 -61.935342 25.932547 9.671377 11.445661 0.000000 0.000000 0.000000 138.803392 31.410297 -30.074772 -108.680458 -1.876228 4.604025 -9.366792 -16.875823 75.093071 
0.203836 0.882394 0.899586 -5.989594 22.455668 -1.729870 0.000000 0.000000 0.000000 1.675252 3.321200 22.939420 7.973449 -0.818004 -51.743607 161.732890 21.648036 146.350282 0.000000 0.000000 0.000000 44.662440 -6.047374 -0.760579 -68.478814 -28.831991 -38.181024 122.866031 30.666643 113.527124 0.000000 0.000000 0.000000 -10.794270 -4.511076 -56.825160 -10.716617 1.864900 1.156523 19.688257 10.037096 36.146577 0.000000 0.000000 0.000000 -5.142014 -7.839111 -70.559591 0.000000 0.000000 0.000000 -117.638113 51.133382 -31.594849 42.426131 12.368052 -63.824193 25.536394 9.579529 12.197529 0.000000 0.000000 0.000000 140.824581 24.360010 -33.169115 -107.513390 -8.536663 -2.238138 -20.115624 -14.324172 72.812261 
0.200897 0.887500 0.883140 -5.101158 20.341168 -1.416411 0.000000 0.000000 0.000000 -0.124256 3.886651 21.629465 9.091913 0.072849 -50.689934 165.834741 21.087775 145.404642 0.000000 0.000000 0.000000 44.864606 -9.159338 4.302095 -60.470210 -32.949137 -49.460426 121.295949 23.577349 114.685792 0.000000 0.000000 0.000000 -9.456618 -3.661900 -58.032454 -10.921644 1.956792 1.542757 17.562598 8.905352 35.874173 0.000000 0.000000 0.000000 -2.284604 -6.220586 -70.086129 0.000000 0.000000 0.000000 -122.155617 46.825969 -33.126455 46.135272 14.527828 -64.265425 25.744790 9.628029 12.895442 0.000000 0.000000 0.000000 141.744149 19.372442 -34.351202 -105.937570 -11.332757 -5.515686 -25.836974 -13.141093 71.842469 
0.199331 0.890149 0.868784 -4.517254 18.316393 -1.610688 0.000000 0.000000 0.000000 -1.697166 4.412168 21.112356 10.306640 0.956412 -50.153624 171.125043 21.423745 143.787480 0.000000 0.000000 0.000000 43.773388 -13.043156 10.852640 -51.512818 -32.721630 -57.703848 124.575928 15.719263 118.713183 0.000000 0.000000 0.000000 -8.386661 -2.891934 -59.167467 -11.060323 2.057433 2.051904 16.452885 7.575053 36.875804 0.000000 0.000000 0.000000 -0.288664 -5.185360 -70.513134 0.000000 0.000000 0.000000 -125.188101 42.874479 -33.878910 48.709033 15.966525 -64.267291 26.245122 9.714648 13.983983 0.000000 0.000000 0.000000 142.343350 14.890142 -35.443302 -103.372457 -14.646177 -9.771125 -31.036741 -12.183593 69.226657 
0.198428 0.891741 0.855304 -3.900106 15.827118 -1.703745 0.000000 0.000000 0.000000 -3.666507 5.059777 20.689977 12.046538 2.118855 -49.827541 175.653084 21.338068 142.442654 0.000000 0.000000 0.000000 40.740141 -16.229760 17.730991 -43.868466 -28.441362 -60.145621 112.488078 -6.794239 119.549345 0.000000 0.000000 0.000000 -6.744381 -1.727678 -60.314979 -11.462839 2.197910 2.505457 14.399696 6.399502 37.130155 0.000000 0.000000 0.000000 2.164856 -3.891081 -70.527673 0.000000 0.000000 0.000000 -127.960437 37.411566 -33.565809 54.184730 18.658500 -63.683575 27.801413 9.876871 17.439666 0.000000 0.000000 0.000000 142.544200 9.877471 -36.515905 -100.183141 -16.505614 -12.906035 -34.541854 -11.749120 66.136997 
0.198847 0.892759 0.840113 -3.490305 13.731765 -1.615613 0.000000 0.000000 0.000000 -5.536105 5.504565 19.775836 13.727407 3.144028 -49.407770 179.600134 21.704081 141.113332 0.000000 0.000000 0.000000 37.187145 -18.061403 23.302378 -39.775793 -22.514807 -55.727707 95.510342 -25.035308 122.072890 0.000000 0.000000 0.000000 -5.280198 -0.671956 -61.276129 -11.703576 2.286966 2.773675 12.456882 5.184484 37.400442 0.000000 0.000000 0.000000 4.344894 -2.770329 -70.721524 0.000000 0.000000 0.000000 -130.444255 31.842598 -32.709585 60.769094 21.376605 -61.942665 28.998849 9.865162 21.014690 0.000000 0.000000 0.000000 143.409768 5.094234 -37.959407 -96.605438 -19.089236 -17.422597 -37.509188 -11.658602 61.547062 
0.199970 0.892417 0.823045 -3.250385 11.456856 -1.502839 0.000000 0.000000 0.000000 -7.168224 5.817302 18.763185 15.303991 4.171962 -49.126948 -176.834435 21.538795 139.931295 0.000000 0.000000 0.000000 33.316809 -18.730962 27.875945 -36.005775 -16.385982 -48.881913 77.095888 -35.133510 125.396288 0.000000 0.000000 0.000000 -3.387911 0.654229 -61.909506 -12.231271 2.386151 2.754472 10.152154 3.632487 37.672562 0.000000 0.000000 0.000000 7.113044 -1.418103 -70.397660 0.000000 0.000000 0.000000 -132.643448 24.482001 -30.576855 70.387607 23.987789 -57.585840 30.538489 9.712229 25.792752 0.000000 0.000000 0.000000 143.781982 0.014656 -39.164013 -92.171219 -20.807873 -21.658875 -40.130660 -11.841717 56.927412 
0.202347 0.891030 0.804188 -3.422389 9.620922 -1.603582 0.000000 0.000000 0.000000 -8.460188 5.956606 17.724305 16.916002 5.111217 -48.915036 -172.218761 22.194706 138.276610 0.000000 0.000000 0.000000 30.257586 -18.998196 31.396188 -32.601451 -11.122820 -40.942392 41.037289 -43.753709 133.193797 0.000000 0.000000 0.000000 -1.434987 1.893976 -61.990488 -12.828793 2.493994 2.713720 8.149042 2.018654 37.985484 0.000000 0.000000 0.000000 9.714984 -0.232551 -69.896142 0.000000 0.000000 0.000000 -134.100952 16.574488 -27.319905 81.735518 24.824611 -50.452760 31.452517 9.222932 31.750053 0.000000 0.000000 0.000000 143.449542 -4.122176 -39.703438 -87.922392 -21.590661 -24.931333 -41.732672 -12.214094 52.803350 
0.205962 0.889575 0.781704 -3.647185 7.504979 -1.578771 0.000000 0.000000 0.000000 -10.065574 5.991509 16.201486 19.086665 6.271767 -48.429089 -165.467139 23.573856 135.862497 0.000000 0.000000 0.000000 27.812477 -18.362798 33.227426 -29.959483 -6.837421 -32.512977 28.351536 -42.109831 128.504922 0.000000 0.000000 0.000000 1.073032 3.384850 -61.418712 -13.721899 2.516832 1.833332 5.503761 -0.036013 38.095950 0.000000 0.000000 0.000000 12.955361 1.154265 -68.839251 0.000000 0.000000 0.000000 -134.945523 7.028465 -23.106334 95.898991 22.224759 -39.475735 30.101986 8.293007 40.091303 0.000000 0.000000 0.000000 142.974548 -10.375325 -41.344433 -81.212180 -22.054167 -29.529029 -43.559781 -12.973958 46.755314 
0.211092 0.887277 0.756354 -3.769537 4.579938 -1.183774 0.000000 0.000000 0.000000 -12.072890 5.945442 14.274164 21.633662 7.789555 -48.055690 -156.988043 25.837515 132.764103 0.000000 0.000000 0.000000 25.436079 -17.125579 34.311242 -28.040226 -4.253621 -26.744691 34.237874 -36.581027 118.637115 0.000000 0.000000 0.000000 4.252702 5.267049 -60.727620 -14.539912 2.569156 1.204780 2.342513 -2.264128 38.256387 0.000000 0.000000 0.000000 16.384649 2.710482 -67.606183 0.000000 0.000000 0.000000 -135.739494 -3.494258 -18.832042 107.931292 15.914593 -28.445690 26.248061 7.679704 48.474889 0.000000 0.000000 0.000000 142.061899 -18.214125 -43.370599 -72.782430 -21.774794 -35.003575 -44.365792 -13.996218 39.627274 
0.218790 0.885130 0.729279 -3.849335 1.695986 -0.976858 0.000000 0.000000 0.000000 -14.125545 5.792031 12.326883 24.087683 9.231902 -47.409760 -146.298717 30.444789 129.265313 0.000000 0.000000 0.000000 22.990289 -15.923096 35.494086 -26.978135 -3.516028 -25.434930 35.780372 -33.775861 115.484372 0.000000 0.000000 0.000000 7.364105 6.982267 -59.643975 -15.032162 2.608832 0.815389 -0.656311 -4.315855 37.820652 0.000000 0.000000 0.000000 19.575913 4.058209 -66.003588 0.000000 0.000000 0.000000 -136.060612 -13.801238 -14.402288 116.530725 5.483818 -17.630128 19.064056 7.994084 55.930887 0.000000 0.000000 0.000000 140.688911 -25.230572 -44.677940 -65.734970 -20.782365 -39.149542 -44.317832 -14.809522 33.733980 
0.228994 0.883893 0.701078 -3.928680 -0.827854 -1.070525 0.000000 0.000000 0.000000 -16.216212 5.441304 10.155171 26.599385 10.417427 -46.086878 -140.268515 33.189177 127.232975 0.000000 0.000000 0.000000 20.533502 -14.687751 36.433016 -26.110142 -4.081313 -28.172761 33.134183 -33.871527 116.612832 0.000000 0.000000 0.000000 10.202162 8.377230 -58.377106 -15.422387 2.591999 0.222662 -3.350210 -6.236615 37.732809 0.000000 0.000000 0.000000 22.342486 5.031081 -63.935176 0.000000 0.000000 0.000000 -136.090805 -23.096476 -10.330308 120.304144 -6.280072 -8.279961 9.705626 9.356727 60.405474 0.000000 0.000000 0.000000 138.858827 -31.718662 -45.687353 -59.323812 -19.130379 -42.078264 -43.670470 -15.463746 28.234547 
